<?xml version="1.0" encoding="UTF-8"?>
<svg width="20px" height="20px" viewBox="0 0 20 20" version="1.1" xmlns="http://www.w3.org/2000/svg" xmlns:xlink="http://www.w3.org/1999/xlink">
    <title>6030C6EF-1C92-4412-9F3D-62D4F6083553</title>
    <g id="Page-1" stroke="none" stroke-width="1" fill="none" fill-rule="evenodd">
        <g id="Filter_Desktop" transform="translate(-397.000000, -511.000000)">
            <g id="Group" transform="translate(398.000000, 512.000000)">
                <path d="M4.86933255,0 L12.1440189,0 L12.1440189,0 L14,0 C16.209139,-4.05812251e-16 18,1.790861 18,4 L18,7.47380362 L18,7.47380362 L18,14 C18,16.209139 16.209139,18 14,18 L3.90374508,18 C1.74776621,18 2.64031263e-16,16.2522338 0,14.0962549 L0,14.0962549 L0,14.0962549 L0,9" id="Rectangle-Copy-53" stroke="#E42520" stroke-width="1.5" stroke-linecap="round" transform="translate(9.000000, 9.000000) scale(-1, 1) translate(-9.000000, -9.000000) "></path>
                <path d="M7.58334896,10.5967196 L5.37190206,8.01218336 C4.88016867,7.43435491 4.02392097,7.37712589 3.46181105,7.88111046 C2.89970113,8.38509502 2.84285855,9.2592221 3.33459195,9.83428141 L6.49251285,13.526476 C6.73883068,13.8144672 7.08890877,13.9852312 7.46154344,13.999077 C7.47868644,14 7.49492717,14 7.51116791,14 C7.86665958,14 8.2086173,13.8569275 8.46215323,13.6003199 L17.5975673,4.36983337 C18.1299025,3.83261905 18.1344138,2.95572282 17.6092967,2.41204716 C17.0841796,1.86652541 16.2279319,1.86283321 15.6955966,2.40004753 L7.58334896,10.5967196 Z" id="Path-Copy-9" fill="#E42520"></path>
            </g>
        </g>
    </g>
</svg>