<svg id="free-shipping-icon" xmlns="http://www.w3.org/2000/svg" width="35.989" height="35.989" viewBox="0 0 35.989 35.989">
  <g id="bag-tick-2" transform="translate(0 0)">
    <path id="Vector" d="M25.2,10.44a6.936,6.936,0,0,0-4.619-1.979V7.321A7.334,7.334,0,0,0,12.541.034a7.718,7.718,0,0,0-6.6,7.558v.87A6.936,6.936,0,0,0,1.325,10.44,6.594,6.594,0,0,0,.08,15.719l1.05,8.352c.315,2.924,1.5,5.923,7.948,5.923h8.367c6.448,0,7.633-3,7.948-5.908l1.05-8.382A6.573,6.573,0,0,0,25.2,10.44ZM12.751,2.118a5.226,5.226,0,0,1,5.743,5.2v1.05H8.028v-.78A5.64,5.64,0,0,1,12.751,2.118Zm.51,22.748a5.683,5.683,0,1,1,5.683-5.683A5.689,5.689,0,0,1,13.261,24.866Z" transform="translate(4.733 2.996)" fill="#d0021b"/>
    <path id="Vector-2" data-name="Vector" d="M2.605,5.2a1.112,1.112,0,0,1-.795-.33L.326,3.386A1.124,1.124,0,1,1,1.916,1.8l.72.72L5.035.3a1.125,1.125,0,1,1,1.53,1.649L3.37,4.9A1.173,1.173,0,0,1,2.605,5.2Z" transform="translate(14.534 19.752)" fill="#d0021b"/>
    <path id="Vector-3" data-name="Vector" d="M0,0H35.989V35.989H0Z" transform="translate(35.989 35.989) rotate(180)" fill="none" opacity="0"/>
  </g>
</svg>
