<svg id="help-icon" xmlns="http://www.w3.org/2000/svg" width="35.989" height="35.989" viewBox="0 0 35.989 35.989">
  <g id="message-question" transform="translate(0 0)">
    <path id="Vector" d="M0,0H35.989V35.989H0Z" fill="none" opacity="0"/>
    <path id="Vector-2" data-name="Vector" d="M22.414,0H7.471A7.055,7.055,0,0,0,0,7.464v8.957a7.055,7.055,0,0,0,7.471,7.464v3.18A1.485,1.485,0,0,0,9.787,28.3l6.649-4.419h5.977a7.055,7.055,0,0,0,7.471-7.464V7.464A7.055,7.055,0,0,0,22.414,0ZM14.942,18.168a1.12,1.12,0,1,1,1.121-1.12A1.119,1.119,0,0,1,14.942,18.168Zm1.883-6.2c-.583.388-.762.642-.762,1.06v.313a1.121,1.121,0,0,1-2.241,0v-.313a3.473,3.473,0,0,1,1.748-2.911c.553-.373.732-.627.732-1.015a1.36,1.36,0,0,0-2.72,0,1.121,1.121,0,0,1-2.241,0,3.6,3.6,0,0,1,7.2,0A3.424,3.424,0,0,1,16.825,11.972Z" transform="translate(3.052 3.708)" fill="#d0021b"/>
  </g>
</svg>
