<svg xmlns="http://www.w3.org/2000/svg" width="35.989" height="35.989" viewBox="0 0 35.989 35.989">
  <g id="return-icon-" transform="translate(0)">
    <g id="_3d-rotate" data-name="3d-rotate" transform="translate(0 0)">
      <path id="Vector" d="M0,0H35.989V35.989H0Z" fill="none" opacity="0"/>
      <g id="Group" transform="translate(21.374 21.353)">
        <path id="Vector-2" data-name="Vector" d="M1.119,12.761a1.128,1.128,0,0,1-.975-.57,1.145,1.145,0,0,1,.015-1.14L1.734,8.427a1.136,1.136,0,0,1,1.545-.39,1.123,1.123,0,0,1,.39,1.545l-.4.675a9.4,9.4,0,0,0,7.243-9.132,1.125,1.125,0,0,1,2.249,0A11.667,11.667,0,0,1,1.119,12.761Z" transform="translate(0 0)" fill="#d0021b"/>
      </g>
      <g id="Group-2" data-name="Group" transform="translate(1.874 1.874)">
        <path id="Vector-3" data-name="Vector" d="M1.125,12.746A1.133,1.133,0,0,1,0,11.621,11.641,11.641,0,0,1,11.621,0,1.128,1.128,0,0,1,12.6.57a1.145,1.145,0,0,1-.015,1.14L11.007,4.334a1.124,1.124,0,1,1-1.919-1.17l.4-.675a9.389,9.389,0,0,0-7.243,9.132A1.133,1.133,0,0,1,1.125,12.746Z" transform="translate(0)" fill="#d0021b"/>
      </g>
      <path id="Vector-4" data-name="Vector" d="M13.856,3.28,8.217.236a2.038,2.038,0,0,0-1.9,0L.66,3.28a1.327,1.327,0,0,0,0,2.294L6.3,8.619a2.039,2.039,0,0,0,1.919,0l5.638-3.044a1.327,1.327,0,0,0,0-2.294Z" transform="translate(10.737 9.031)" fill="#d0021b"/>
      <path id="Vector-5" data-name="Vector" d="M7.108,2.758,1.859.134A1.3,1.3,0,0,0,.6.194,1.289,1.289,0,0,0,0,1.289V6.252A2.232,2.232,0,0,0,1.245,8.262l5.248,2.624a1.289,1.289,0,0,0,.585.135,1.218,1.218,0,0,0,.675-.195,1.27,1.27,0,0,0,.615-1.095V4.768A2.263,2.263,0,0,0,7.108,2.758Z" transform="translate(8.997 15.941)" fill="#d0021b"/>
      <path id="Vector-6" data-name="Vector" d="M7.753.194a1.3,1.3,0,0,0-1.26-.06L1.245,2.758A2.249,2.249,0,0,0,0,4.768V9.731a1.27,1.27,0,0,0,.615,1.095,1.218,1.218,0,0,0,.675.195,1.385,1.385,0,0,0,.585-.135L7.123,8.262A2.249,2.249,0,0,0,8.367,6.252V1.289A1.27,1.27,0,0,0,7.753.194Z" transform="translate(18.624 15.941)" fill="#d0021b"/>
    </g>
  </g>
</svg>
